# xmcd
#
# Track frame offsets: 
#        150
#        18911
#        37746
#        56056
#        81970
#        101105
#        124215
#        137817
#        174553
#        195861
#        206281
#        220804
#        237923
#        270878
#        284750
#
# Disc length: 4033 seconds
#
# Revision: 0
# Processed by: cddbd v1.5.2PL0 Copyright (c) Steve Scherf et al.
# Submitted via: ExactAudioCopy v1.3
#
DISCID=d00fbf0f
DTITLE=Rob Tognoni - Capital Wah
DYEAR=2006
DGENRE=Blues
TTITLE0=01 The Rain
TTITLE1=02 Isolate
TTITLE2=03 Like A Rolling Stone
TTITLE3=04 Dogs With Fleas
TTITLE4=06 Let Your Love Fly
TTITLE5=06 My Detonation
TTITLE6=07 Redhouse (Live)
TTITLE7=08 Shoot to Kill
TTITLE8=09 Reboot
TTITLE9=10 I Got You - You Got  Me
TTITLE10=11 The Good Die Young (Original)
TTITLE11=12 Product of a Southern Land (Live)
TTITLE12=13 God Bless America
TTITLE13=14 Ballad Of Julie-Ann
TTITLE14=15 Stupify Me
EXTD=
EXTT0=
EXTT1=
EXTT2=
EXTT3=
EXTT4=
EXTT5=
EXTT6=
EXTT7=
EXTT8=
EXTT9=
EXTT10=
EXTT11=
EXTT12=
EXTT13=
EXTT14=
PLAYORDER=
